<svg width="64" height="64" viewBox="0 0 64 64" fill="none" xmlns="http://www.w3.org/2000/svg">
<g clip-path="url(#clip0_18_10)">
<path d="M57.0672 50.9571L53.588 28.6822C52.7845 23.5379 50.1636 18.8402 46.2081 15.4545C44.5492 14.0346 42.6981 12.8834 40.7244 12.024C43.0064 10.2911 44.4834 7.55045 44.4834 4.47044V0H19.5165V4.47044C19.5165 7.55045 20.9936 10.2911 23.2757 12.024C21.3019 12.8835 19.4508 14.0346 17.792 15.4545C13.8363 18.8402 11.2155 23.5379 10.4119 28.6822L6.93278 50.9572C4.06887 51.6872 1.94495 54.2883 1.94495 57.3764C1.94495 61.0287 4.91628 64 8.56853 64H55.4314C59.0837 64 62.055 61.0287 62.055 57.3764C62.0551 54.2883 59.9312 51.6871 57.0672 50.9571V50.9571Z" fill="#595959"/>
<path d="M57.0672 50.9571L53.5881 28.6822C52.7845 23.5379 50.1637 18.8402 46.2081 15.4545C44.5493 14.0346 42.6982 12.8834 40.7244 12.024C43.0065 10.2911 44.4834 7.55045 44.4834 4.47044V0H31.9999V64H55.4313C59.0836 64 62.0549 61.0287 62.0549 57.3764C62.0552 54.2883 59.9312 51.6871 57.0672 50.9571V50.9571Z" fill="#454040"/>
<path d="M43.1582 13.9517H20.8417C15.5637 13.9517 11.2697 9.65761 11.2697 4.37961H15.0171C15.0171 7.59128 17.6299 10.2042 20.8417 10.2042H43.1582C46.3698 10.2042 48.9828 7.59128 48.9828 4.37961H52.7302C52.7302 9.65761 48.4362 13.9517 43.1582 13.9517Z" fill="#FFF16B"/>
<path d="M32 50.3856C38.6463 50.3856 44.0342 44.9977 44.0342 38.3513C44.0342 31.705 38.6463 26.3171 32 26.3171C25.3536 26.3171 19.9657 31.705 19.9657 38.3513C19.9657 44.9977 25.3536 50.3856 32 50.3856Z" fill="#FFF16B"/>
<path d="M44.0343 38.3513C44.0343 31.705 38.6463 26.3171 32 26.3171V50.3856C38.6463 50.3856 44.0343 44.9976 44.0343 38.3513V38.3513Z" fill="#FFD321"/>
<path d="M32 52.2593C24.3311 52.2593 18.092 46.0202 18.092 38.3513C18.092 30.6825 24.3311 24.4434 32 24.4434C39.6689 24.4434 45.908 30.6825 45.908 38.3513C45.908 46.0202 39.6689 52.2593 32 52.2593V52.2593ZM32 28.1908C26.3975 28.1908 21.8395 32.7488 21.8395 38.3513C21.8395 43.9539 26.3975 48.5119 32 48.5119C37.6025 48.5119 42.1606 43.9539 42.1606 38.3513C42.1606 32.7488 37.6025 28.1908 32 28.1908V28.1908Z" fill="#FFD321"/>
<path d="M36.141 40.5804C36.0882 39.3433 35.641 38.476 34.6915 37.7691C34.1154 37.3327 33.7825 37.1598 33.1445 36.841L32.301 36.4034C32.1657 36.3293 31.9801 36.2017 31.765 36.0537L31.754 36.0464C31.437 35.7977 31.3813 35.6117 31.3813 35.3129C31.3813 34.9208 31.6721 34.6018 32.0293 34.6018C32.4971 34.6018 32.7901 34.7271 33.1895 35.4388L33.5422 36.0669L35.7765 34.6195L35.5008 34.0769C35.015 33.1212 34.3294 32.4786 33.4619 32.1658V30.6491H30.849V32.1575C29.5056 32.6635 28.6422 33.9366 28.6422 35.4233C28.6422 36.442 28.9867 37.2433 29.6967 37.8744C30.2985 38.3927 30.7687 38.681 31.7072 39.1074C32.9748 39.7111 33.4025 40.098 33.4025 40.6409C33.4025 41.0036 33.3132 41.2968 33.1386 41.5107C32.907 41.7825 32.6037 41.9038 32.1555 41.9038C31.4489 41.9038 30.8869 41.5825 30.4413 40.0147L30.1991 39.1625L27.8347 40.5935L27.931 41.0611C28.2594 42.6539 29.3737 43.9209 30.849 44.3872V45.872H33.4619V44.3778C34.0964 44.1816 34.6512 43.8265 35.1111 43.3218C35.7949 42.5813 36.1415 41.6687 36.1414 40.607L36.141 40.5804Z" fill="#FFD321"/>
<path d="M52.7303 4.37961H48.9829C48.9829 7.59128 46.3699 10.2042 43.1582 10.2042H32V13.9517H43.1582C48.4362 13.9517 52.7303 9.65761 52.7303 4.37961V4.37961Z" fill="#FFD321"/>
<path d="M32 24.4434V28.1908C37.6025 28.1908 42.1605 32.7488 42.1605 38.3513C42.1605 43.9539 37.6025 48.5119 32 48.5119V52.2593C39.6689 52.2593 45.908 46.0202 45.908 38.3513C45.908 30.6825 39.6689 24.4434 32 24.4434V24.4434Z" fill="#FFAF00"/>
<path d="M32.0295 34.6018C32.4973 34.6018 32.7902 34.7271 33.1897 35.4388L33.5423 36.0669L35.7767 34.6195L35.501 34.0769C35.0152 33.1212 34.3295 32.4786 33.462 32.1658V30.6491H32V34.6034C32.0099 34.603 32.0196 34.6018 32.0295 34.6018V34.6018Z" fill="#FFAF00"/>
<path d="M33.462 44.378C34.0966 44.1817 34.6513 43.8266 35.1112 43.3219C35.795 42.5814 36.1417 41.6688 36.1415 40.6072L36.141 40.5806C36.0882 39.3434 35.641 38.4761 34.6915 37.7692C34.1154 37.3328 33.7825 37.1599 33.1445 36.8411L32.301 36.4035C32.2185 36.3583 32.1153 36.2915 31.9999 36.2139V39.2511C33.04 39.7751 33.4025 40.1425 33.4025 40.6409C33.4025 41.0036 33.3132 41.2968 33.1386 41.5107C32.907 41.7825 32.6037 41.9038 32.1555 41.9038C32.1028 41.9038 32.051 41.9018 31.9999 41.8978V45.8722H33.4619V44.378H33.462Z" fill="#FFAF00"/>
</g>
<defs>
<clipPath id="clip0_18_10">
<rect width="64" height="64" fill="white"/>
</clipPath>
</defs>
</svg>
