<svg width="64" height="64" viewBox="0 0 64 64" fill="none" xmlns="http://www.w3.org/2000/svg">
<path d="M29.4312 51.7007V48.0612C29.344 47.9863 29.2478 47.927 29.1651 47.8443L16.1658 34.6281C15.4894 34.0467 17.2515 35.1883 17.8989 34.873L22.9819 36.047L38.6355 51.7007H29.4312ZM39.5971 51.7007H51.7936V46.658C53.8274 45.1273 55.1479 42.7021 55.1479 39.9604C55.1479 38.8334 54.9187 37.7633 54.514 36.7839L39.5971 51.7007Z" fill="#FAC176"/>
<path d="M24.8838 0L5.9093 18.9756L16.1871 29.2533C16.8836 28.6194 17.7983 28.2213 18.809 28.2213H29.9902C32.1426 28.2213 33.9036 29.9824 33.9036 32.1347C33.9036 34.2871 32.1426 36.0482 29.9902 36.0482H22.9807L39.1152 52.1826L58.0908 33.207L24.8838 0Z" fill="#E8E8D3"/>
<path d="M54.0298 51.7007H27.1949V64H54.0298V51.7007Z" fill="#ECF0F1"/>
<path d="M45.0848 64H27.1949V51.7007H37.7343C41.7942 51.7007 45.0848 54.9913 45.0848 59.0512V64Z" fill="#BDC3C7"/>
<path d="M37.817 60.6456C39.3608 60.6456 40.6123 59.3941 40.6123 57.8503C40.6123 56.3065 39.3608 55.055 37.817 55.055C36.2732 55.055 35.0217 56.3065 35.0217 57.8503C35.0217 59.3941 36.2732 60.6456 37.817 60.6456Z" fill="#556080"/>
<path d="M36.0325 11.1152C37.4111 10.5092 38.3761 9.13615 38.3761 7.53501C38.3761 5.37368 36.624 3.62159 34.4627 3.62159C32.8604 3.62159 31.4873 4.58653 30.8824 5.96517L36.0325 11.1152Z" fill="#FAC176"/>
<path d="M41.6231 16.7058C43.0017 16.0998 43.9667 14.7267 43.9667 13.1256C43.9667 10.9643 42.2146 9.21218 40.0532 9.21218C38.451 9.21218 37.0779 10.1771 36.473 11.5558L41.6231 16.7058Z" fill="#FAC176"/>
<path d="M47.2138 22.2964C48.5924 21.6904 49.5573 20.3173 49.5573 18.7162C49.5573 16.5549 47.8053 14.8028 45.6439 14.8028C44.0417 14.8028 42.6686 15.7677 42.0637 17.1463L47.2138 22.2964Z" fill="#FAC176"/>
<path d="M52.8044 27.887C54.183 27.281 55.1479 25.9079 55.1479 24.3068C55.1479 22.1455 53.3958 20.3934 51.2345 20.3934C49.6323 20.3934 48.2592 21.3583 47.6543 22.7369L52.8044 27.887Z" fill="#FAC176"/>
<path d="M29.9902 36.047H18.809C16.6567 36.047 14.8956 34.286 14.8956 32.1336C14.8956 29.9812 16.6567 28.2202 18.809 28.2202H29.9902C32.1426 28.2202 33.9037 29.9812 33.9037 32.1336C33.9037 34.286 32.1426 36.047 29.9902 36.047Z" fill="#FDD7AD"/>
<path d="M31.9995 13.4409C31.5623 13.8781 30.8556 13.8781 30.4185 13.4409L27.9675 10.99C26.1528 12.1953 23.6125 12.1953 21.8 10.99L16.8982 15.8929C18.1292 17.7546 18.1292 20.1977 16.8982 22.0594L19.3491 24.5103C19.7863 24.9475 19.7863 25.6541 19.3491 26.0913C19.131 26.3093 18.8448 26.4189 18.5586 26.4189C18.2723 26.4189 17.9861 26.3093 17.7681 26.0913L13.8155 22.1388L14.606 21.3482C15.9131 20.04 15.9131 17.9123 14.606 16.6041L13.8155 15.8136L21.7217 7.90734L22.5122 8.69785C23.7791 9.96468 25.9873 9.96468 27.2564 8.69785L28.0469 7.90734L32.0006 11.861C32.4367 12.2971 32.4367 13.0037 31.9995 13.4409ZM50.1846 30.0439L46.232 26.0913C45.7948 25.6541 45.0882 25.6541 44.651 26.0913C44.2138 26.5285 44.2138 27.2351 44.651 27.6723L47.1019 30.1232C45.8709 31.9849 45.8709 34.428 47.1019 36.2897L42.2001 41.1926C40.3854 39.9862 37.845 39.9862 36.0325 41.1926L33.5816 38.7417C33.1444 38.3045 32.4378 38.3045 32.0006 38.7417C31.5634 39.1789 31.5634 39.8855 32.0006 40.3227L35.9543 44.2764L36.7448 43.4859C38.0127 42.2179 40.221 42.2202 41.4889 43.4859L42.2795 44.2764L50.1857 36.3702L49.3952 35.5797C48.0881 34.2715 48.0881 32.1437 49.3952 30.8355L50.1846 30.0439ZM52.5561 32.4154C52.1189 31.9782 51.4111 31.9782 50.9751 32.4154C50.5379 32.8526 50.5379 33.5603 50.9751 33.9964C51.4123 34.4336 52.12 34.4336 52.5561 33.9964C52.9933 33.5603 52.9933 32.8526 52.5561 32.4154ZM38.3247 45.0658C37.8875 45.503 37.8875 46.2107 38.3247 46.6468C38.7619 47.0829 39.4696 47.084 39.9057 46.6468C40.3429 46.2096 40.3429 45.5018 39.9057 45.0658C39.4696 44.6297 38.7619 44.6297 38.3247 45.0658ZM25.6754 7.11571C26.1126 6.67853 26.1126 5.97076 25.6754 5.53469C25.2382 5.09751 24.5304 5.09751 24.0944 5.53469C23.6572 5.97188 23.6572 6.67964 24.0944 7.11571C24.5304 7.55178 25.2382 7.55178 25.6754 7.11571ZM11.444 18.184C11.0068 18.6212 11.0068 19.3289 11.444 19.765C11.8812 20.2022 12.5889 20.2022 13.025 19.765C13.4622 19.3278 13.4622 18.62 13.025 18.184C12.5878 17.7479 11.88 17.7479 11.444 18.184Z" fill="#6D8C60"/>
<path d="M39.1153 18.9756C35.1851 15.0454 28.814 15.0454 24.8838 18.9756C22.3737 21.4858 21.4747 24.9911 22.1713 28.2202H29.9892C32.1415 28.2202 33.9026 29.9812 33.9026 32.1336C33.9026 34.1608 32.335 35.8212 30.3548 36.0101C33.4464 36.52 36.7303 35.592 39.1141 33.207C43.0454 29.2768 43.0454 22.9047 39.1153 18.9756Z" fill="#6D8C60"/>
</svg>
