<svg width="65" height="65" viewBox="0 0 65 65" fill="none" xmlns="http://www.w3.org/2000/svg">
<path d="M64.674 23.6936L49.3132 0.842799C48.959 0.317231 48.3674 0.00112915 47.7327 0.00112915C47.098 0.00112915 46.5064 0.317231 46.1522 0.842799L30.7914 23.6936C29.9421 24.958 30.8511 26.6603 32.3719 26.6603H34.2761V63.0946C34.2761 64.1458 35.1292 64.9988 36.1804 64.9988H59.285C60.3361 64.9988 61.1892 64.1458 61.1892 63.0946V26.6603H63.0935C64.6169 26.6603 65.522 24.9567 64.674 23.6936Z" fill="#FF7D47"/>
<path d="M63.0935 26.6603H61.1893V63.0946C61.1893 64.1458 60.3362 64.9988 59.285 64.9988H47.7327V0.00112915C48.3674 0.00112915 48.959 0.317231 49.3132 0.842799L64.674 23.6936C65.522 24.9567 64.6169 26.6603 63.0935 26.6603V26.6603Z" fill="#FF405C"/>
<path d="M43.9242 49.765C44.9759 49.765 45.8285 48.9125 45.8285 47.8608C45.8285 46.8091 44.9759 45.9565 43.9242 45.9565C42.8726 45.9565 42.02 46.8091 42.02 47.8608C42.02 48.9125 42.8726 49.765 43.9242 49.765Z" fill="#FDF4F5"/>
<path d="M51.5412 57.3819C52.5928 57.3819 53.4454 56.5294 53.4454 55.4777C53.4454 54.426 52.5928 53.5735 51.5412 53.5735C50.4895 53.5735 49.6369 54.426 49.6369 55.4777C49.6369 56.5294 50.4895 57.3819 51.5412 57.3819Z" fill="#EFE2DD"/>
<path d="M52.8881 49.2077L45.2712 56.8246C44.5272 57.5673 43.3212 57.5673 42.5773 56.8246C41.8347 56.0807 41.8347 54.8747 42.5773 54.1308L47.7327 48.9754L50.1942 46.5138C50.9381 45.7712 52.1441 45.7712 52.8881 46.5138C53.6307 47.2578 53.6307 48.4638 52.8881 49.2077Z" fill="#FDF4F5"/>
<path d="M52.8881 49.2077L47.7327 54.3631V48.9754L50.1942 46.5138C50.9381 45.7712 52.1442 45.7712 52.8881 46.5138C53.6307 47.2578 53.6307 48.4638 52.8881 49.2077Z" fill="#EFE2DD"/>
<path d="M28.5634 38.3396H17.1381C16.0869 38.3396 15.2338 39.1927 15.2338 40.2439V63.0946C15.2338 64.1458 16.0869 64.9988 17.1381 64.9988H28.5634C29.6146 64.9988 30.4677 64.1458 30.4677 63.0946V40.2439C30.4677 39.1927 29.6146 38.3396 28.5634 38.3396Z" fill="#57D9AD"/>
<path d="M9.52115 53.5735H1.90423C0.853095 53.5735 0 54.4266 0 55.4777V63.0946C0 64.1457 0.853095 64.9988 1.90423 64.9988H9.52115C10.5723 64.9988 11.4254 64.1457 11.4254 63.0946V55.4777C11.4254 54.4266 10.5723 53.5735 9.52115 53.5735Z" fill="#FFDA2D"/>
<path d="M30.4677 40.2439V63.0946C30.4677 64.1458 29.6146 64.9988 28.5635 64.9988H22.8508V38.3396H28.5635C29.6146 38.3396 30.4677 39.1927 30.4677 40.2439Z" fill="#26BFA6"/>
<path d="M11.4254 55.4777V63.0946C11.4254 64.1457 10.5723 64.9988 9.52114 64.9988H5.71268V53.5735H9.52114C10.5723 53.5735 11.4254 54.4266 11.4254 55.4777Z" fill="#FDBF00"/>
</svg>
