<svg width="65" height="65" viewBox="0 0 65 65" fill="none" xmlns="http://www.w3.org/2000/svg">
<path d="M18.4222 48.4812L8.4337 3.80859H1.24854V0H11.4848L22.1392 47.6502L18.4222 48.4812Z" fill="#BD9B7B"/>
<path d="M49.5802 4.76672C48.7334 3.42863 47.4143 2.49933 45.868 2.15275C44.3218 1.8049 42.7336 2.08039 41.3942 2.92844C40.8318 3.28517 39.9685 4.01769 38.6203 6.25334C38.6203 6.25207 38.619 6.25207 38.619 6.2508C38.5759 6.17971 38.534 6.10988 38.4908 6.04133C37.2149 3.97072 36.391 3.27375 35.8464 2.92844C34.507 2.08039 32.9188 1.8049 31.3725 2.15275C29.8262 2.49933 28.5072 3.42863 27.6592 4.76672C25.9097 7.53176 26.7337 11.2032 29.4974 12.9539H29.4987C30.1335 13.3564 31.3675 13.8985 34.7812 14.1308L34.7774 14.1409L35.0821 14.1498C35.2713 14.1612 35.4655 14.1727 35.6686 14.1816C36.6639 14.2285 37.5983 14.2412 38.3118 14.2412C38.3727 14.2412 38.4324 14.2412 38.4908 14.24H38.6203C38.718 14.24 38.8196 14.2412 38.9288 14.2412C39.641 14.2412 40.5766 14.2285 41.5707 14.1816C41.7738 14.1727 41.968 14.1612 42.1572 14.1498L42.4632 14.1409L42.4594 14.1308C45.8731 13.8985 47.1071 13.3564 47.7419 12.9539C50.5056 11.2032 51.3308 7.53163 49.5802 4.76672ZM36.4329 10.406C34.0716 10.3196 32.0657 10.0645 31.535 9.73566C30.5461 9.10978 30.2503 7.79455 30.8774 6.80432C31.1808 6.3257 31.6531 5.99308 32.2066 5.86867C32.7601 5.74426 33.3289 5.84328 33.8088 6.1467C34.3293 6.48312 35.4122 8.17795 36.4989 10.2689C36.476 10.3158 36.4545 10.3615 36.4329 10.406ZM45.7043 9.73566C45.1761 10.0645 43.1703 10.3184 40.8064 10.406C40.7848 10.3603 40.7633 10.3146 40.7417 10.2689C41.8259 8.17795 42.9088 6.48439 43.4318 6.1467C43.7759 5.92834 44.1656 5.81535 44.5642 5.81535C44.7204 5.81535 44.8778 5.83312 45.034 5.86867C45.5875 5.99308 46.0597 6.3257 46.3632 6.80432C46.989 7.79455 46.6946 9.10978 45.7043 9.73566Z" fill="#31CA8B"/>
<path d="M49.5802 4.76672C48.7334 3.42863 47.4143 2.49933 45.868 2.15275C44.3218 1.8049 42.7336 2.08039 41.3942 2.92844C40.8318 3.28517 39.9685 4.01769 38.6203 6.25334C38.6203 6.25207 38.619 6.25207 38.619 6.2508V14.24H38.6203C38.718 14.24 38.8196 14.2412 38.9288 14.2412C39.641 14.2412 40.5766 14.2285 41.5707 14.1816C41.7738 14.1727 41.968 14.1612 42.1572 14.1498L42.4632 14.1409L42.4594 14.1308C45.8731 13.8985 47.1071 13.3564 47.7419 12.9539C50.5056 11.2032 51.3308 7.53163 49.5802 4.76672ZM45.7043 9.73566C45.1761 10.0645 43.1703 10.3184 40.8064 10.406C40.7848 10.3603 40.7633 10.3146 40.7417 10.2689C41.8259 8.17795 42.9088 6.48439 43.4318 6.1467C43.7759 5.92834 44.1656 5.81535 44.5642 5.81535C44.7204 5.81535 44.8778 5.83312 45.034 5.86867C45.5875 5.99308 46.0597 6.3257 46.3632 6.80432C46.989 7.79455 46.6946 9.10978 45.7043 9.73566Z" fill="#00A754"/>
<path d="M53.0741 10.2121H24.1643V33.5372H53.0741V10.2121Z" fill="#FF6187"/>
<path d="M53.074 10.2121H38.6191V33.5372H53.074V10.2121Z" fill="#FF0435"/>
<path d="M41.6761 10.2121H35.5634V33.5372H41.6761V10.2121Z" fill="#31CA8B"/>
<path d="M41.6749 10.2121H38.6191V33.5372H41.6749V10.2121Z" fill="#00A754"/>
<path d="M63.7514 23.8215L57.8684 49.97H18.7554L12.9092 23.8215H63.7514Z" fill="#FFAA20"/>
<path d="M63.7514 23.8215L57.8684 49.97H38.6198V23.8215H63.7514Z" fill="#FF8900"/>
<path d="M34.212 58.8364C34.212 62.235 31.4469 65 28.0484 65C24.6511 65 21.8861 62.235 21.8861 58.8364C21.8861 55.4392 24.6511 52.6741 28.0484 52.6741C31.4469 52.6741 34.212 55.4392 34.212 58.8364Z" fill="#BD9B7B"/>
<path d="M55.4398 58.8364C55.4398 62.235 52.676 65 49.2775 65C45.8789 65 43.1139 62.235 43.1139 58.8364C43.1139 55.4392 45.8789 52.6741 49.2775 52.6741C52.676 52.6741 55.4398 55.4392 55.4398 58.8364Z" fill="#A17852"/>
<path d="M40.5222 23.8215H36.7136V49.97H40.5222V23.8215Z" fill="#FFDBA9"/>
<path d="M30.1279 49.97H26.2914L23.1201 23.8215H26.9579L30.1279 49.97Z" fill="#FFDBA9"/>
<path d="M53.8072 23.8215L50.6372 49.97H46.8007L49.9707 23.8215H53.8072Z" fill="#FFB74F"/>
<path d="M40.5222 23.8215H38.6191V49.97H40.5222V23.8215Z" fill="#FFB74F"/>
</svg>
