<svg width="64" height="64" viewBox="0 0 64 64" fill="none" xmlns="http://www.w3.org/2000/svg">
<path d="M50 56H14C12.4087 56 10.8826 55.3679 9.75736 54.2426C8.63214 53.1174 8 51.5913 8 50V24C8 23.4696 8.21071 22.9609 8.58579 22.5858C8.96086 22.2107 9.46957 22 10 22H54C54.5304 22 55.0391 22.2107 55.4142 22.5858C55.7893 22.9609 56 23.4696 56 24V50C56 51.5913 55.3679 53.1174 54.2426 54.2426C53.1174 55.3679 51.5913 56 50 56V56Z" fill="#009AE0"/>
<path d="M51.82 28C49.5177 27.9999 47.2509 27.4325 45.22 26.348C43.1818 27.4161 40.9151 27.974 38.614 27.974C36.3129 27.974 34.0462 27.4161 32.008 26.348C29.97 27.4166 27.7032 27.9748 25.402 27.9748C23.1008 27.9748 20.834 27.4166 18.796 26.348C16.8681 27.3629 14.7325 27.9205 12.5545 27.9777C10.3765 28.0349 8.21456 27.5902 6.23599 26.678C5.37216 26.2728 4.68222 25.5714 4.29141 24.7009C3.9006 23.8305 3.83481 22.8488 4.10599 21.934L7.30599 10.886C7.55078 10.0568 8.05597 9.32851 8.74682 8.80875C9.43766 8.28899 10.2775 8.00542 11.142 8H52.858C53.7237 8.0035 54.5652 8.28623 55.2574 8.80618C55.9495 9.32612 56.4555 10.0555 56.7 10.886L59.9 21.934C60.1712 22.8488 60.1054 23.8305 59.7146 24.7009C59.3238 25.5714 58.6338 26.2728 57.77 26.678C55.9087 27.553 53.8767 28.0045 51.82 28V28Z" fill="#FD3730"/>
<path d="M57.78 26.68C55.9153 27.5551 53.8798 28.0059 51.82 28C49.7428 28.0064 47.6913 27.5414 45.82 26.64L41.54 8H52.86C53.7244 8.00418 54.5646 8.28648 55.2561 8.80515C55.9477 9.32382 56.4539 10.0513 56.7 10.88L59.9 21.94C60.1725 22.853 60.1084 23.8335 59.7194 24.7033C59.3304 25.5731 58.6422 26.2745 57.78 26.68V26.68Z" fill="#FAC100"/>
<path d="M32 8V26.34C29.9622 27.4139 27.6935 27.9751 25.39 27.9751C23.0866 27.9751 20.8178 27.4139 18.78 26.34C18.5927 26.4453 18.399 26.5388 18.2 26.62L22.46 8H32Z" fill="#FAC100"/>
<path d="M28 56H16V38C16 37.4696 16.2107 36.9609 16.5858 36.5858C16.9609 36.2107 17.4696 36 18 36H26C26.5304 36 27.0391 36.2107 27.4142 36.5858C27.7893 36.9609 28 37.4696 28 38V56Z" fill="#EAEFF0"/>
<path d="M46 46H38C37.4696 46 36.9609 45.7893 36.5858 45.4142C36.2107 45.0391 36 44.5304 36 44V38C36 37.4696 36.2107 36.9609 36.5858 36.5858C36.9609 36.2107 37.4696 36 38 36H46C46.5304 36 47.0391 36.2107 47.4142 36.5858C47.7893 36.9609 48 37.4696 48 38V44C48 44.5304 47.7893 45.0391 47.4142 45.4142C47.0391 45.7893 46.5304 46 46 46Z" fill="#EAEFF0"/>
</svg>
